<svg width="219" height="116" viewBox="0 0 219 116" fill="none" xmlns="http://www.w3.org/2000/svg">
<path d="M0 116V0H61.2841C67.8967 0 73.5646 1.18368 78.2878 3.55103C83.1292 5.91837 86.7897 9.24393 89.2694 13.5277C91.8672 17.6987 93.1661 22.6589 93.1661 28.4082C93.1661 34.0447 92.1624 38.6667 90.155 42.2741C88.2657 45.8814 85.6679 48.6997 82.3616 50.7289C79.1734 52.758 75.69 54.3363 71.9114 55.4636V56.1399C75.2177 56.8163 78.2878 57.8309 81.1218 59.1837C84.0738 60.5364 86.6716 62.3965 88.9151 64.7639C91.1587 67.0185 92.8708 69.8367 94.0517 73.2187C95.3506 76.4879 96 80.4334 96 85.0554C96 91.2556 94.6421 96.6667 91.9262 101.289C89.2103 105.911 85.3137 109.518 80.2362 112.111C75.2768 114.704 69.3137 116 62.3469 116H0ZM33.6531 89.1137H51.3653C53.6089 89.1137 55.3801 88.6628 56.679 87.7609C57.9779 86.7464 58.8635 85.45 59.3358 83.8717C59.9262 82.2935 60.2214 80.6589 60.2214 78.9679C60.2214 76.4879 59.8081 74.5714 58.9816 73.2187C58.2731 71.7532 57.2103 70.7386 55.7934 70.1749C54.4945 69.4985 53.0184 69.1603 51.3653 69.1603H33.6531V89.1137ZM33.6531 44.4723H49.2399C51.2472 44.4723 52.9004 44.1341 54.1993 43.4577C55.4982 42.6686 56.4428 41.5413 57.0332 40.0758C57.7417 38.4976 58.0959 36.6375 58.0959 34.4956C58.0959 30.7755 57.2103 28.2391 55.4391 26.8863C53.786 25.4208 51.7196 24.688 49.2399 24.688H33.6531V44.4723Z" fill="#191919"/>
<path d="M105 13.1L219 2V33.635L155.685 39.74V40.48L219 47.88V70.82L155.685 78.22V78.96L219 85.065L219 113L105 101.9V64.345L159.673 57.87V57.13L105 50.655L105 13.1Z" fill="#191919"/>
</svg>
