<svg width="228" height="22" viewBox="0 0 228 22" fill="none" xmlns="http://www.w3.org/2000/svg">
<path d="M215.008 21.4453V14.3433L209.094 0.445312H215.671L218.357 7.51674H218.508L220.921 0.445312H227.197L221.314 14.3433V21.4453H215.008Z" fill="#191919"/>
<path d="M181.127 21.4453C179.864 21.4453 178.711 21.247 177.669 20.8504C176.646 20.4538 175.764 19.8887 175.023 19.1549C174.281 18.4212 173.709 17.5487 173.308 16.5374C172.908 15.5062 172.707 14.366 172.707 13.1167V8.80367C172.707 7.55438 172.908 6.42407 173.308 5.41273C173.709 4.38157 174.281 3.49914 175.023 2.76543C175.764 2.01189 176.646 1.43681 177.669 1.04021C178.711 0.643613 179.864 0.445312 181.127 0.445312H182.21C183.473 0.445312 184.615 0.643613 185.638 1.04021C186.68 1.43681 187.572 2.01189 188.314 2.76543C189.056 3.49914 189.627 4.38157 190.028 5.41273C190.429 6.42407 190.63 7.55438 190.63 8.80367V13.1167C190.63 14.366 190.429 15.5062 190.028 16.5374C189.627 17.5487 189.056 18.4212 188.314 19.1549C187.572 19.8887 186.68 20.4538 185.638 20.8504C184.615 21.247 183.473 21.4453 182.21 21.4453H181.127ZM181.668 16.7753C182.049 16.7753 182.39 16.7258 182.691 16.6266C182.991 16.5076 183.252 16.3391 183.473 16.121C183.693 15.9028 183.864 15.645 183.984 15.3476C184.104 15.0303 184.164 14.6634 184.164 14.247V7.61387C184.164 7.19744 184.104 6.8405 183.984 6.54305C183.864 6.22577 183.693 5.95806 183.473 5.73993C183.252 5.5218 182.991 5.36316 182.691 5.26401C182.39 5.14503 182.049 5.08554 181.668 5.08554C181.307 5.08554 180.967 5.14503 180.646 5.26401C180.345 5.36316 180.085 5.5218 179.864 5.73993C179.664 5.95806 179.503 6.22577 179.383 6.54305C179.263 6.8405 179.202 7.19744 179.202 7.61387V14.247C179.202 14.6634 179.263 15.0303 179.383 15.3476C179.503 15.645 179.664 15.9028 179.864 16.121C180.085 16.3391 180.345 16.5076 180.646 16.6266C180.967 16.7258 181.307 16.7753 181.668 16.7753Z" fill="#191919"/>
<path d="M154.242 21.4453V0.445312H161.578L162.6 11.6494H162.72L163.743 0.445312H171.078V21.4453H165.667V7.97593H165.547L164.224 21.4453H160.496L159.173 7.97593H159.053V21.4453H154.242Z" fill="#191919"/>
<path d="M137.586 21.4453V0.445312H152.612L152.005 5.28205H143.839V8.34327H151.671V13.0269H143.839V16.4249H152.005L152.612 21.4453H137.586Z" fill="#191919"/>
<path d="M0 21.4453V0.445312H11.0946C12.2917 0.445312 13.3178 0.659598 14.1729 1.08817C15.0493 1.51674 15.712 2.11878 16.1609 2.89429C16.6312 3.6494 16.8664 4.54735 16.8664 5.58817C16.8664 6.60858 16.6847 7.44531 16.3213 8.09837C15.9792 8.75144 15.5089 9.26164 14.9104 9.62899C14.3332 9.99633 13.7026 10.282 13.0185 10.4861V10.6086C13.6171 10.731 14.1729 10.9147 14.6859 11.1596C15.2203 11.4045 15.6906 11.7412 16.0968 12.1698C16.503 12.578 16.8129 13.0882 17.0267 13.7004C17.2618 14.2923 17.3794 15.0065 17.3794 15.8433C17.3794 16.9657 17.1336 17.9453 16.6419 18.782C16.1502 19.6188 15.4448 20.2718 14.5256 20.7412C13.6278 21.2106 12.5482 21.4453 11.287 21.4453H0ZM6.09242 16.578H9.29895C9.70511 16.578 10.0258 16.4963 10.2609 16.3331C10.4961 16.1494 10.6564 15.9147 10.7419 15.629C10.8488 15.3433 10.9022 15.0474 10.9022 14.7412C10.9022 14.2923 10.8274 13.9453 10.6778 13.7004C10.5495 13.4351 10.3571 13.2514 10.1006 13.1494C9.86544 13.0269 9.59823 12.9657 9.29895 12.9657H6.09242V16.578ZM6.09242 8.49633H8.91417C9.27757 8.49633 9.57685 8.43511 9.812 8.31266C10.0471 8.1698 10.2182 7.96572 10.325 7.70041C10.4533 7.4147 10.5174 7.07797 10.5174 6.69021C10.5174 6.01674 10.3571 5.55756 10.0365 5.31266C9.73718 5.04735 9.36308 4.9147 8.91417 4.9147H6.09242V8.49633Z" fill="#191919"/>
<path d="M77.8438 21.4453V0.445312H92.8697L92.2626 5.28205H84.097V8.34327H91.9287V13.0269H84.097V16.4249H92.2626L92.8697 21.4453H77.8438Z" fill="#191919"/>
<path d="M64.6478 21.4453V5.49633H59.3789V0.445312H76.2152V5.49633H70.9463V21.4453H64.6478Z" fill="#191919"/>
<path d="M46.5463 21.4453V5.49633H41.2773V0.445312H58.1137V5.49633H52.8447V21.4453H46.5463Z" fill="#191919"/>
<path d="M39.6472 20.9023L18.8281 20.0351V11.8127L26.5533 11.106L31.1168 10.7849L26.5533 10.5279L18.8281 9.88552V1.85577L39.6472 0.988552V6.86633H30.729L24.4356 6.96269L30.729 7.66931L39.6472 8.76136V13.2901L30.729 14.2858L24.2566 15.0567L30.729 15.0888L39.6472 15.1852V20.9023Z" fill="#191919"/>
<path d="M113.871 0.445312H135.414V21.2942H129.735V9.09459H127.513V17.2294H122.112V9.09459H119.55V21.4453H113.871V0.445312Z" fill="#191919"/>
<path d="M99.4917 14.6158V9.11007H103.1C103.461 9.11007 103.762 9.03987 104.002 8.89947C104.263 8.73901 104.453 8.52841 104.574 8.26766C104.714 8.00692 104.784 7.73614 104.784 7.45534C104.784 7.1946 104.714 6.95391 104.574 6.73328C104.433 6.51265 104.233 6.33213 103.972 6.19173C103.732 6.05133 103.431 5.98113 103.07 5.98113H99.4917V0.445312H103.371C105.055 0.445312 106.528 0.726115 107.791 1.28772C109.074 1.84932 110.066 2.65162 110.768 3.6946C111.47 4.73758 111.821 5.99116 111.821 7.45534C111.821 8.29775 111.61 9.15018 111.189 10.0126C110.768 10.8551 110.167 11.6273 109.385 12.3293C108.623 13.0112 107.691 13.5628 106.588 13.984C105.506 14.4052 104.293 14.6158 102.95 14.6158H99.4917ZM94.5 21.4453V0.445312H101.386V21.4453H94.5ZM105.115 21.4453C105.115 20.6029 105.005 19.7304 104.784 18.8278C104.584 17.9253 104.273 17.0628 103.852 16.2404C103.431 15.4181 102.9 14.696 102.258 14.0743C101.617 13.4525 100.855 13.0112 99.9728 12.7505L106.558 11.2763C107.701 11.8379 108.633 12.5298 109.355 13.3522C110.096 14.1545 110.668 15.027 111.069 15.9697C111.47 16.8923 111.76 17.825 111.941 18.7677C112.121 19.7104 112.221 20.6029 112.241 21.4453H105.115Z" fill="#191919"/>
<path d="M197.253 14.6158V9.11007H200.862C201.223 9.11007 201.523 9.03987 201.764 8.89947C202.025 8.73901 202.215 8.52841 202.335 8.26766C202.476 8.00692 202.546 7.73614 202.546 7.45534C202.546 7.1946 202.476 6.95391 202.335 6.73328C202.195 6.51265 201.994 6.33213 201.734 6.19173C201.493 6.05133 201.193 5.98113 200.832 5.98113H197.253V0.445312H201.132C202.816 0.445312 204.29 0.726115 205.553 1.28772C206.836 1.84932 207.828 2.65162 208.53 3.6946C209.231 4.73758 209.582 5.99116 209.582 7.45534C209.582 8.29775 209.372 9.15018 208.951 10.0126C208.53 10.8551 207.928 11.6273 207.147 12.3293C206.385 13.0112 205.453 13.5628 204.35 13.984C203.267 14.4052 202.055 14.6158 200.711 14.6158H197.253ZM192.262 21.4453V0.445312H199.148V21.4453H192.262ZM202.877 21.4453C202.877 20.6029 202.766 19.7304 202.546 18.8278C202.345 17.9253 202.035 17.0628 201.614 16.2404C201.193 15.4181 200.661 14.696 200.02 14.0743C199.378 13.4525 198.617 13.0112 197.735 12.7505L204.32 11.2763C205.463 11.8379 206.395 12.5298 207.116 13.3522C207.858 14.1545 208.43 15.027 208.83 15.9697C209.231 16.8923 209.522 17.825 209.703 18.7677C209.883 19.7104 209.983 20.6029 210.003 21.4453H202.877Z" fill="#191919"/>
</svg>
