<svg width="1255" height="116" viewBox="0 0 1255 116" fill="none" xmlns="http://www.w3.org/2000/svg">
<path d="M1187.67 116V76.7697L1155 0H1191.33L1206.17 39.0612H1207L1220.33 0H1255L1222.5 76.7697V116H1187.67Z" fill="#191919"/>
<path d="M1000.51 116C993.534 116 987.166 114.905 981.408 112.714C975.76 110.523 970.888 107.401 966.79 103.348C962.693 99.2956 959.537 94.4759 957.322 88.8895C955.107 83.1936 954 76.8952 954 69.9943V46.17C954 39.2691 955.107 33.0255 957.322 27.4391C959.537 21.7432 962.693 16.8687 966.79 12.8159C970.888 8.65345 975.76 5.47687 981.408 3.28612C987.166 1.09537 993.534 0 1000.51 0H1006.49C1013.47 0 1019.78 1.09537 1025.43 3.28612C1031.18 5.47687 1036.11 8.65345 1040.21 12.8159C1044.31 16.8687 1047.46 21.7432 1049.68 27.4391C1051.89 33.0255 1053 39.2691 1053 46.17V69.9943C1053 76.8952 1051.89 83.1936 1049.68 88.8895C1047.46 94.4759 1044.31 99.2956 1040.21 103.348C1036.11 107.401 1031.18 110.523 1025.43 112.714C1019.78 114.905 1013.47 116 1006.49 116H1000.51ZM1003.5 90.204C1005.6 90.204 1007.49 89.9301 1009.15 89.3824C1010.81 88.7252 1012.25 87.7942 1013.47 86.5892C1014.68 85.3843 1015.63 83.9603 1016.29 82.3173C1016.95 80.5647 1017.29 78.5382 1017.29 76.238V39.5977C1017.29 37.2975 1016.95 35.3258 1016.29 33.6827C1015.63 31.9301 1014.68 30.4514 1013.47 29.2465C1012.25 28.0416 1010.81 27.1652 1009.15 26.6176C1007.49 25.9603 1005.6 25.6317 1003.5 25.6317C1001.51 25.6317 999.624 25.9603 997.852 26.6176C996.191 27.1652 994.752 28.0416 993.534 29.2465C992.426 30.4514 991.54 31.9301 990.876 33.6827C990.211 35.3258 989.879 37.2975 989.879 39.5977V76.238C989.879 78.5382 990.211 80.5647 990.876 82.3173C991.54 83.9603 992.426 85.3843 993.534 86.5892C994.752 87.7942 996.191 88.7252 997.852 89.3824C999.624 89.9301 1001.51 90.204 1003.5 90.204Z" fill="#191919"/>
<path d="M852 116V0H892.521L898.168 61.8892H898.832L904.479 0H945V116H915.107V41.5977H914.443L907.136 116H886.543L879.236 41.5977H878.571V116H852Z" fill="#191919"/>
<path d="M760 116V0H843L839.646 26.7172H794.541V43.6268H837.802V69.4985H794.541V88.2682H839.646L843 116H760Z" fill="#191919"/>
<path d="M0 116V0H61.2841C67.8967 0 73.5646 1.18368 78.2878 3.55103C83.1292 5.91837 86.7897 9.24393 89.2694 13.5277C91.8672 17.6987 93.1661 22.6589 93.1661 28.4082C93.1661 34.0447 92.1624 38.6667 90.155 42.2741C88.2657 45.8814 85.6679 48.6997 82.3616 50.7289C79.1734 52.758 75.69 54.3363 71.9114 55.4636V56.1399C75.2177 56.8163 78.2878 57.8309 81.1218 59.1837C84.0738 60.5364 86.6716 62.3965 88.9151 64.7639C91.1587 67.0185 92.8708 69.8367 94.0517 73.2187C95.3506 76.4879 96 80.4334 96 85.0554C96 91.2556 94.6421 96.6667 91.9262 101.289C89.2103 105.911 85.3137 109.518 80.2362 112.111C75.2768 114.704 69.3137 116 62.3469 116H0ZM33.6531 89.1137H51.3653C53.6089 89.1137 55.3801 88.6628 56.679 87.7609C57.9779 86.7464 58.8635 85.45 59.3358 83.8717C59.9262 82.2935 60.2214 80.6589 60.2214 78.9679C60.2214 76.4879 59.8081 74.5714 58.9816 73.2187C58.2731 71.7532 57.2103 70.7386 55.7934 70.1749C54.4945 69.4985 53.0184 69.1603 51.3653 69.1603H33.6531V89.1137ZM33.6531 44.4723H49.2399C51.2472 44.4723 52.9004 44.1341 54.1993 43.4577C55.4982 42.6686 56.4428 41.5413 57.0332 40.0758C57.7417 38.4976 58.0959 36.6375 58.0959 34.4956C58.0959 30.7755 57.2103 28.2391 55.4391 26.8863C53.786 25.4208 51.7196 24.688 49.2399 24.688H33.6531V44.4723Z" fill="#191919"/>
<path d="M430 116V0H513L509.646 26.7172H464.541V43.6268H507.802V69.4985H464.541V88.2682H509.646L513 116H430Z" fill="#191919"/>
<path d="M357.104 116V27.9009H328V0H421V27.9009H391.896V116H357.104Z" fill="#191919"/>
<path d="M257.104 116V27.9009H228V0H321V27.9009H291.896V116H257.104Z" fill="#191919"/>
<path d="M219 113L104 108.21V62.7903L146.672 58.8871L171.88 57.1129L146.672 55.6936L104 52.1452V7.79033L219 3V35.4677H169.738L134.974 36L169.738 39.9032L219 45.9355V70.9516L169.738 76.4516L133.986 80.7097L169.738 80.8871L219 81.4194V113Z" fill="#191919"/>
<path d="M629 0H748V115.165H716.63V47.777H704.355V92.7122H674.52V47.777H660.37V116H629V0Z" fill="#191919"/>
<path d="M549.573 78.2751V47.8625H569.505C571.498 47.8625 573.159 47.4747 574.488 46.6991C575.928 45.8128 576.98 44.6495 577.644 43.2092C578.419 41.7689 578.807 40.2732 578.807 38.7221C578.807 37.2818 578.419 35.9522 577.644 34.7335C576.869 33.5148 575.762 32.5177 574.322 31.7421C572.993 30.9666 571.332 30.5788 569.339 30.5788H549.573V0H571C580.302 0 588.441 1.5511 595.417 4.65329C602.504 7.75549 607.985 12.1872 611.861 17.9484C615.737 23.7096 617.675 30.6342 617.675 38.7221C617.675 43.3754 616.512 48.084 614.186 52.8481C611.861 57.5014 608.539 61.767 604.22 65.6447C600.012 69.4117 594.863 72.4585 588.773 74.7851C582.793 77.1118 576.094 78.2751 568.675 78.2751H549.573ZM522 116V0H560.037V116H522ZM580.634 116C580.634 111.347 580.025 106.527 578.807 101.542C577.699 96.5559 575.983 91.7918 573.658 87.2493C571.332 82.7068 568.398 78.7183 564.854 75.2837C561.311 71.8491 557.103 69.4117 552.231 67.9714L588.607 59.8281C594.919 62.9303 600.068 66.7526 604.054 71.2951C608.151 75.7268 611.307 80.5463 613.522 85.7536C615.737 90.8501 617.342 96.0019 618.339 101.209C619.336 106.416 619.889 111.347 620 116H580.634Z" fill="#191919"/>
<path d="M1089.57 78.2751V47.8625H1109.51C1111.5 47.8625 1113.16 47.4747 1114.49 46.6991C1115.93 45.8128 1116.98 44.6495 1117.64 43.2092C1118.42 41.7689 1118.81 40.2732 1118.81 38.7221C1118.81 37.2818 1118.42 35.9522 1117.64 34.7335C1116.87 33.5148 1115.76 32.5177 1114.32 31.7421C1112.99 30.9666 1111.33 30.5788 1109.34 30.5788H1089.57V0H1111C1120.3 0 1128.44 1.5511 1135.42 4.65329C1142.5 7.75549 1147.99 12.1872 1151.86 17.9484C1155.74 23.7096 1157.67 30.6342 1157.67 38.7221C1157.67 43.3754 1156.51 48.084 1154.19 52.8481C1151.86 57.5014 1148.54 61.767 1144.22 65.6447C1140.01 69.4117 1134.86 72.4585 1128.77 74.7851C1122.79 77.1118 1116.09 78.2751 1108.67 78.2751H1089.57ZM1062 116V0H1100.04V116H1062ZM1120.63 116C1120.63 111.347 1120.02 106.527 1118.81 101.542C1117.7 96.5559 1115.98 91.7918 1113.66 87.2493C1111.33 82.7068 1108.4 78.7183 1104.85 75.2837C1101.31 71.8491 1097.1 69.4117 1092.23 67.9714L1128.61 59.8281C1134.92 62.9303 1140.07 66.7526 1144.05 71.2951C1148.15 75.7268 1151.31 80.5463 1153.52 85.7536C1155.74 90.8501 1157.34 96.0019 1158.34 101.209C1159.34 106.416 1159.89 111.347 1160 116H1120.63Z" fill="#191919"/>
</svg>
