<svg width="625" height="246" viewBox="0 0 625 246" fill="none" xmlns="http://www.w3.org/2000/svg">
<path d="M557.667 246V206.77L525 130H561.333L576.167 169.061H577L590.333 130H625L592.5 206.77V246H557.667Z" fill="#191919"/>
<path d="M371.51 246C364.534 246 358.166 244.905 352.408 242.714C346.76 240.523 341.888 237.401 337.79 233.348C333.693 229.296 330.537 224.476 328.322 218.89C326.107 213.194 325 206.895 325 199.994V176.17C325 169.269 326.107 163.025 328.322 157.439C330.537 151.743 333.693 146.869 337.79 142.816C341.888 138.653 346.76 135.477 352.408 133.286C358.166 131.095 364.534 130 371.51 130H377.49C384.466 130 390.779 131.095 396.426 133.286C402.185 135.477 407.112 138.653 411.21 142.816C415.307 146.869 418.463 151.743 420.678 157.439C422.893 163.025 424 169.269 424 176.17V199.994C424 206.895 422.893 213.194 420.678 218.89C418.463 224.476 415.307 229.296 411.21 233.348C407.112 237.401 402.185 240.523 396.426 242.714C390.779 244.905 384.466 246 377.49 246H371.51ZM374.5 220.204C376.604 220.204 378.487 219.93 380.148 219.382C381.809 218.725 383.248 217.794 384.466 216.589C385.685 215.384 386.626 213.96 387.29 212.317C387.955 210.565 388.287 208.538 388.287 206.238V169.598C388.287 167.297 387.955 165.326 387.29 163.683C386.626 161.93 385.685 160.451 384.466 159.246C383.248 158.042 381.809 157.165 380.148 156.618C378.487 155.96 376.604 155.632 374.5 155.632C372.507 155.632 370.624 155.96 368.852 156.618C367.191 157.165 365.752 158.042 364.534 159.246C363.426 160.451 362.54 161.93 361.876 163.683C361.211 165.326 360.879 167.297 360.879 169.598V206.238C360.879 208.538 361.211 210.565 361.876 212.317C362.54 213.96 363.426 215.384 364.534 216.589C365.752 217.794 367.191 218.725 368.852 219.382C370.624 219.93 372.507 220.204 374.5 220.204Z" fill="#191919"/>
<path d="M223 246V130H263.521L269.168 191.889H269.832L275.479 130H316V246H286.107V171.598H285.443L278.136 246H257.543L250.236 171.598H249.571V246H223Z" fill="#191919"/>
<path d="M131 246V130H214L210.646 156.717H165.541V173.627H208.802V199.499H165.541V218.268H210.646L214 246H131Z" fill="#191919"/>
<path d="M0 116V0H61.2841C67.8967 0 73.5646 1.18368 78.2878 3.55103C83.1292 5.91837 86.7897 9.24393 89.2694 13.5277C91.8672 17.6987 93.1661 22.6589 93.1661 28.4082C93.1661 34.0447 92.1624 38.6667 90.155 42.2741C88.2657 45.8814 85.6679 48.6997 82.3616 50.7289C79.1734 52.758 75.69 54.3363 71.9114 55.4636V56.1399C75.2177 56.8163 78.2878 57.8309 81.1218 59.1837C84.0738 60.5364 86.6716 62.3965 88.9151 64.7639C91.1587 67.0185 92.8708 69.8367 94.0517 73.2187C95.3506 76.4879 96 80.4334 96 85.0554C96 91.2556 94.6421 96.6667 91.9262 101.289C89.2103 105.911 85.3137 109.518 80.2362 112.111C75.2768 114.704 69.3137 116 62.3469 116H0ZM33.6531 89.1137H51.3653C53.6089 89.1137 55.3801 88.6628 56.679 87.7609C57.9779 86.7464 58.8635 85.45 59.3358 83.8717C59.9262 82.2935 60.2214 80.6589 60.2214 78.9679C60.2214 76.4879 59.8081 74.5714 58.9816 73.2187C58.2731 71.7532 57.2103 70.7386 55.7934 70.1749C54.4945 69.4985 53.0184 69.1603 51.3653 69.1603H33.6531V89.1137ZM33.6531 44.4723H49.2399C51.2472 44.4723 52.9004 44.1341 54.1993 43.4577C55.4982 42.6686 56.4428 41.5413 57.0332 40.0758C57.7417 38.4976 58.0959 36.6375 58.0959 34.4956C58.0959 30.7755 57.2103 28.2391 55.4391 26.8863C53.786 25.4208 51.7196 24.688 49.2399 24.688H33.6531V44.4723Z" fill="#191919"/>
<path d="M430 116V0H513L509.646 26.7172H464.541V43.6268H507.802V69.4985H464.541V88.2682H509.646L513 116H430Z" fill="#191919"/>
<path d="M357.104 116V27.9009H328V0H421V27.9009H391.896V116H357.104Z" fill="#191919"/>
<path d="M257.104 116V27.9009H228V0H321V27.9009H291.896V116H257.104Z" fill="#191919"/>
<path d="M219 113L104 108.21V62.7903L146.672 58.8871L171.88 57.1129L146.672 55.6936L104 52.1452V7.79033L219 3V35.4677H169.738L134.974 36L169.738 39.9032L219 45.9355V70.9516L169.738 76.4516L133.986 80.7097L169.738 80.8871L219 81.4194V113Z" fill="#191919"/>
<path d="M-5.36441e-07 130H119V245.165H87.6304V177.777H75.3553V222.712H45.5201V177.777H31.3696V246H-5.36441e-07V130Z" fill="#191919"/>
<path d="M549.573 78.2751V47.8625H569.505C571.498 47.8625 573.159 47.4747 574.488 46.6991C575.928 45.8128 576.98 44.6495 577.644 43.2092C578.419 41.7689 578.807 40.2732 578.807 38.7221C578.807 37.2818 578.419 35.9522 577.644 34.7335C576.869 33.5148 575.762 32.5177 574.322 31.7421C572.993 30.9666 571.332 30.5788 569.339 30.5788H549.573V0H571C580.302 0 588.441 1.5511 595.417 4.65329C602.504 7.75549 607.985 12.1872 611.861 17.9484C615.737 23.7096 617.675 30.6342 617.675 38.7221C617.675 43.3754 616.512 48.084 614.186 52.8481C611.861 57.5014 608.539 61.767 604.22 65.6447C600.012 69.4117 594.863 72.4585 588.773 74.7851C582.793 77.1118 576.094 78.2751 568.675 78.2751H549.573ZM522 116V0H560.037V116H522ZM580.634 116C580.634 111.347 580.025 106.527 578.807 101.542C577.699 96.5559 575.983 91.7918 573.658 87.2493C571.332 82.7068 568.398 78.7183 564.854 75.2837C561.311 71.8491 557.103 69.4117 552.231 67.9714L588.607 59.8281C594.919 62.9303 600.068 66.7526 604.054 71.2951C608.151 75.7268 611.307 80.5463 613.522 85.7536C615.737 90.8501 617.342 96.0019 618.339 101.209C619.336 106.416 619.889 111.347 620 116H580.634Z" fill="#191919"/>
<path d="M460.573 208.275V177.862H480.505C482.498 177.862 484.159 177.475 485.488 176.699C486.928 175.813 487.98 174.649 488.644 173.209C489.419 171.769 489.807 170.273 489.807 168.722C489.807 167.282 489.419 165.952 488.644 164.734C487.869 163.515 486.762 162.518 485.322 161.742C483.993 160.967 482.332 160.579 480.339 160.579H460.573V130H482C491.302 130 499.441 131.551 506.417 134.653C513.504 137.755 518.985 142.187 522.861 147.948C526.737 153.71 528.675 160.634 528.675 168.722C528.675 173.375 527.512 178.084 525.186 182.848C522.861 187.501 519.539 191.767 515.22 195.645C511.012 199.412 505.863 202.458 499.773 204.785C493.793 207.112 487.094 208.275 479.675 208.275H460.573ZM433 246V130H471.037V246H433ZM491.634 246C491.634 241.347 491.025 236.527 489.807 231.542C488.699 226.556 486.983 221.792 484.658 217.249C482.332 212.707 479.398 208.718 475.854 205.284C472.311 201.849 468.103 199.412 463.231 197.971L499.607 189.828C505.919 192.93 511.068 196.753 515.054 201.295C519.151 205.727 522.307 210.546 524.522 215.754C526.737 220.85 528.342 226.002 529.339 231.209C530.336 236.416 530.889 241.347 531 246H491.634Z" fill="#191919"/>
</svg>
