<svg width="219" height="20" viewBox="0 0 219 20" fill="none" xmlns="http://www.w3.org/2000/svg">
<path d="M207.281 20V13.2362L201.649 0H207.913L210.471 6.7347H210.614L212.913 0H218.89L213.287 13.2362V20H207.281Z" fill="#191919"/>
<path d="M199.919 20C199.056 20 198.317 19.8851 197.703 19.6552C197.108 19.4062 196.647 19.0134 196.321 18.477C196.014 17.9406 195.861 17.2127 195.861 16.2931C195.861 16.0058 195.841 15.6609 195.803 15.2586C195.765 14.8563 195.659 14.4732 195.486 14.1092C195.333 13.7261 195.083 13.41 194.738 13.1609C194.393 12.8927 193.913 12.7586 193.299 12.7586H192.205V19.7127H186.304V0H196.004C197.271 0 198.374 0.229885 199.315 0.689656C200.255 1.14943 200.984 1.78161 201.502 2.58621C202.02 3.39081 202.279 4.31993 202.279 5.37357C202.279 6.6571 201.963 7.7299 201.329 8.59197C200.696 9.45404 199.833 10 198.739 10.2299V10.3736C199.487 10.5843 200.092 10.9291 200.552 11.4081C201.013 11.887 201.349 12.4234 201.56 13.0173C201.79 13.592 201.905 14.1667 201.905 14.7414C201.905 15.91 202.011 16.7529 202.222 17.2701C202.452 17.7874 202.836 18.1226 203.373 18.2759V19.4541C202.855 19.6648 202.289 19.8085 201.675 19.8851C201.061 19.9617 200.476 20 199.919 20ZM192.205 8.36208H194.393C195.16 8.36208 195.688 8.17051 195.976 7.78737C196.263 7.38507 196.407 6.91572 196.407 6.37932C196.407 5.90039 196.263 5.46936 195.976 5.08622C195.688 4.70307 195.179 4.5115 194.45 4.5115H192.205V8.36208Z" fill="#191919"/>
<path d="M175.703 20C174.5 20 173.402 19.8112 172.409 19.4335C171.435 19.0557 170.595 18.5175 169.889 17.8187C169.182 17.1199 168.638 16.289 168.256 15.3258C167.875 14.3437 167.684 13.2578 167.684 12.068V7.96035C167.684 6.77055 167.875 5.69406 168.256 4.73089C168.638 3.74883 169.182 2.90841 169.889 2.20964C170.595 1.49198 171.435 0.944289 172.409 0.566573C173.402 0.188858 174.5 0 175.703 0H176.734C177.936 0 179.025 0.188858 179.998 0.566573C180.991 0.944289 181.841 1.49198 182.547 2.20964C183.254 2.90841 183.798 3.74883 184.18 4.73089C184.562 5.69406 184.753 6.77055 184.753 7.96035V12.068C184.753 13.2578 184.562 14.3437 184.18 15.3258C183.798 16.289 183.254 17.1199 182.547 17.8187C181.841 18.5175 180.991 19.0557 179.998 19.4335C179.025 19.8112 177.936 20 176.734 20H175.703ZM176.218 15.5524C176.581 15.5524 176.905 15.5052 177.192 15.4108C177.478 15.2975 177.726 15.1369 177.936 14.9292C178.146 14.7215 178.309 14.4759 178.423 14.1927C178.538 13.8905 178.595 13.5411 178.595 13.1445V6.82721C178.595 6.43061 178.538 6.09066 178.423 5.80737C178.309 5.5052 178.146 5.25024 177.936 5.0425C177.726 4.83476 177.478 4.68367 177.192 4.58924C176.905 4.47593 176.581 4.41927 176.218 4.41927C175.874 4.41927 175.55 4.47593 175.244 4.58924C174.958 4.68367 174.71 4.83476 174.5 5.0425C174.309 5.25024 174.156 5.5052 174.041 5.80737C173.927 6.09066 173.87 6.43061 173.87 6.82721V13.1445C173.87 13.5411 173.927 13.8905 174.041 14.1927C174.156 14.4759 174.309 14.7215 174.5 14.9292C174.71 15.1369 174.958 15.2975 175.244 15.4108C175.55 15.5052 175.874 15.5524 176.218 15.5524Z" fill="#191919"/>
<path d="M150.098 20V0H157.084L158.058 10.6706H158.172L159.146 0H166.132V20H160.978V7.17202H160.864L159.604 20H156.053L154.793 7.17202H154.679V20H150.098Z" fill="#191919"/>
<path d="M134 20V0H148.31L147.732 4.60642H139.955V7.52188H147.414V11.9825H139.955V15.2187H147.732L148.31 20H134Z" fill="#191919"/>
<path d="M109.27 0.689575H131.684V18.5611L126.521 19.1379V7.91308H123.254V18.1472H118.255V7.91308H114.628V19.1379L109.27 18.6108V0.689575Z" fill="#191919"/>
<path d="M0 20V0H10.5662C11.7063 0 12.6835 0.204082 13.4979 0.612247C14.3326 1.02041 14.9637 1.59378 15.3913 2.33237C15.8392 3.05151 16.0631 3.90671 16.0631 4.89797C16.0631 5.86979 15.8901 6.66668 15.544 7.28864C15.2182 7.9106 14.7703 8.39651 14.2003 8.74637C13.6506 9.09622 13.05 9.36833 12.3985 9.5627V9.67932C12.9686 9.79593 13.4979 9.97086 13.9865 10.2041C14.4955 10.4373 14.9434 10.758 15.3302 11.1662C15.717 11.5549 16.0122 12.0408 16.2158 12.6239C16.4397 13.1876 16.5517 13.8679 16.5517 14.6647C16.5517 15.7337 16.3176 16.6667 15.8493 17.4636C15.3811 18.2605 14.7092 18.8824 13.8338 19.3295C12.9787 19.7765 11.9506 20 10.7495 20H0ZM5.80226 15.3645H8.85608C9.2429 15.3645 9.54828 15.2867 9.77223 15.1312C9.99618 14.9563 10.1489 14.7328 10.2303 14.4607C10.3321 14.1886 10.383 13.9067 10.383 13.6152C10.383 13.1876 10.3117 12.8572 10.1692 12.6239C10.0471 12.3713 9.86384 12.1963 9.61954 12.0991C9.39559 11.9825 9.1411 11.9242 8.85608 11.9242H5.80226V15.3645ZM5.80226 7.66765H8.48962C8.83572 7.66765 9.12075 7.60934 9.34469 7.49272C9.56864 7.35667 9.73151 7.1623 9.83331 6.90963C9.95546 6.63752 10.0165 6.31682 10.0165 5.94753C10.0165 5.30613 9.86384 4.86881 9.55846 4.63558C9.27344 4.3829 8.91716 4.25657 8.48962 4.25657H5.80226V7.66765Z" fill="#191919"/>
<path d="M103.961 20C103.097 20 102.358 19.8851 101.744 19.6552C101.149 19.4062 100.689 19.0134 100.363 18.477C100.056 17.9406 99.902 17.2127 99.902 16.2931C99.902 16.0058 99.8828 15.6609 99.8444 15.2586C99.8061 14.8563 99.7005 14.4732 99.5278 14.1092C99.3743 13.7261 99.1248 13.41 98.7794 13.1609C98.434 12.8927 97.9543 12.7586 97.3402 12.7586H96.2464V19.7127H90.3457V0H100.046C101.312 0 102.416 0.229885 103.356 0.689656C104.296 1.14943 105.026 1.78161 105.544 2.58621C106.062 3.39081 106.321 4.31993 106.321 5.37357C106.321 6.6571 106.004 7.7299 105.371 8.59197C104.738 9.45404 103.874 10 102.78 10.2299V10.3736C103.529 10.5843 104.133 10.9291 104.594 11.4081C105.054 11.887 105.39 12.4234 105.601 13.0173C105.832 13.592 105.947 14.1667 105.947 14.7414C105.947 15.91 106.052 16.7529 106.263 17.2701C106.494 17.7874 106.877 18.1226 107.415 18.2759V19.4541C106.897 19.6648 106.33 19.8085 105.716 19.8851C105.102 19.9617 104.517 20 103.961 20ZM96.2464 8.36208H98.434C99.2016 8.36208 99.7293 8.17051 100.017 7.78737C100.305 7.38507 100.449 6.91572 100.449 6.37932C100.449 5.90039 100.305 5.46936 100.017 5.08622C99.7293 4.70307 99.2208 4.5115 98.4916 4.5115H96.2464V8.36208Z" fill="#191919"/>
<path d="M74.4829 20V0H88.7932L88.215 4.60642H80.4383V7.52188H87.897V11.9825H80.4383V15.2187H88.215L88.7932 20H74.4829Z" fill="#191919"/>
<path d="M61.9145 20V4.8105H56.8965V0H72.931V4.8105H67.913V20H61.9145Z" fill="#191919"/>
<path d="M44.6733 20V4.8105H39.6553V0H55.6897V4.8105H50.6718V20H44.6733Z" fill="#191919"/>
<path d="M18.1036 2.25852L37.7588 0.344727V5.79904L26.8424 6.85163V6.97922L37.7588 8.25508V12.2103L26.8424 13.4861V13.6137L37.7588 14.6663V19.4827L18.1036 17.5689L18.1036 11.0939L27.5301 9.9775V9.84991L18.1036 8.73353V2.25852Z" fill="#191919"/>
</svg>
