<svg width="630" height="246" viewBox="0 0 630 246" fill="none" xmlns="http://www.w3.org/2000/svg">
<path d="M562.667 246V206.77L530 130H566.333L581.167 169.061H582L595.333 130H630L597.5 206.77V246H562.667Z" fill="#191919"/>
<path d="M519.966 246C514.958 246 510.673 245.333 507.111 244C503.661 242.556 500.99 240.278 499.098 237.167C497.317 234.056 496.427 229.833 496.427 224.5C496.427 222.833 496.315 220.833 496.093 218.5C495.87 216.167 495.258 213.944 494.256 211.833C493.366 209.611 491.919 207.778 489.916 206.333C487.912 204.778 485.13 204 481.568 204H475.224V244.333H441V130H497.261C504.607 130 511.007 131.333 516.46 134C521.914 136.667 526.143 140.333 529.148 145C532.153 149.667 533.656 155.056 533.656 161.167C533.656 168.611 531.82 174.833 528.147 179.833C524.474 184.833 519.465 188 513.121 189.333V190.167C517.462 191.389 520.968 193.389 523.639 196.167C526.31 198.944 528.258 202.056 529.482 205.5C530.818 208.833 531.486 212.167 531.486 215.5C531.486 222.278 532.098 227.167 533.322 230.167C534.658 233.167 536.884 235.111 540 236V242.833C536.995 244.056 533.712 244.889 530.15 245.333C526.589 245.778 523.194 246 519.966 246ZM475.224 178.5H487.912C492.364 178.5 495.425 177.389 497.094 175.167C498.764 172.833 499.599 170.111 499.599 167C499.599 164.222 498.764 161.722 497.094 159.5C495.425 157.278 492.476 156.167 488.246 156.167H475.224V178.5Z" fill="#191919"/>
<path d="M379.51 246C372.534 246 366.166 244.905 360.408 242.714C354.76 240.523 349.888 237.401 345.79 233.348C341.693 229.296 338.537 224.476 336.322 218.89C334.107 213.194 333 206.895 333 199.994V176.17C333 169.269 334.107 163.025 336.322 157.439C338.537 151.743 341.693 146.869 345.79 142.816C349.888 138.653 354.76 135.477 360.408 133.286C366.166 131.095 372.534 130 379.51 130H385.49C392.466 130 398.779 131.095 404.426 133.286C410.185 135.477 415.112 138.653 419.21 142.816C423.307 146.869 426.463 151.743 428.678 157.439C430.893 163.025 432 169.269 432 176.17V199.994C432 206.895 430.893 213.194 428.678 218.89C426.463 224.476 423.307 229.296 419.21 233.348C415.112 237.401 410.185 240.523 404.426 242.714C398.779 244.905 392.466 246 385.49 246H379.51ZM382.5 220.204C384.604 220.204 386.487 219.93 388.148 219.382C389.809 218.725 391.248 217.794 392.466 216.589C393.685 215.384 394.626 213.96 395.29 212.317C395.955 210.565 396.287 208.538 396.287 206.238V169.598C396.287 167.297 395.955 165.326 395.29 163.683C394.626 161.93 393.685 160.451 392.466 159.246C391.248 158.042 389.809 157.165 388.148 156.618C386.487 155.96 384.604 155.632 382.5 155.632C380.507 155.632 378.624 155.96 376.852 156.618C375.191 157.165 373.752 158.042 372.534 159.246C371.426 160.451 370.54 161.93 369.876 163.683C369.211 165.326 368.879 167.297 368.879 169.598V206.238C368.879 208.538 369.211 210.565 369.876 212.317C370.54 213.96 371.426 215.384 372.534 216.589C373.752 217.794 375.191 218.725 376.852 219.382C378.624 219.93 380.507 220.204 382.5 220.204Z" fill="#191919"/>
<path d="M231 246V130H271.521L277.168 191.889H277.832L283.479 130H324V246H294.107V171.598H293.443L286.136 246H265.543L258.236 171.598H257.571V246H231Z" fill="#191919"/>
<path d="M139 246V130H222L218.646 156.717H173.541V173.627H216.802V199.499H173.541V218.268H218.646L222 246H139Z" fill="#191919"/>
<path d="M0 134H130V237.655L100.058 241V175.896H81.1079V235.254H52.1137V175.896H31.0787V241L0 237.943V134Z" fill="#191919"/>
<path d="M0 116V0H61.2841C67.8967 0 73.5646 1.18368 78.2878 3.55103C83.1292 5.91837 86.7897 9.24393 89.2694 13.5277C91.8672 17.6987 93.1661 22.6589 93.1661 28.4082C93.1661 34.0447 92.1624 38.6667 90.155 42.2741C88.2657 45.8814 85.6679 48.6997 82.3616 50.7289C79.1734 52.758 75.69 54.3363 71.9114 55.4636V56.1399C75.2177 56.8163 78.2878 57.8309 81.1218 59.1837C84.0738 60.5364 86.6716 62.3965 88.9151 64.7639C91.1587 67.0185 92.8708 69.8367 94.0517 73.2187C95.3506 76.4879 96 80.4334 96 85.0554C96 91.2556 94.6421 96.6667 91.9262 101.289C89.2103 105.911 85.3137 109.518 80.2362 112.111C75.2768 114.704 69.3137 116 62.3469 116H0ZM33.6531 89.1137H51.3653C53.6089 89.1137 55.3801 88.6628 56.679 87.7609C57.9779 86.7464 58.8635 85.45 59.3358 83.8717C59.9262 82.2935 60.2214 80.6589 60.2214 78.9679C60.2214 76.4879 59.8081 74.5714 58.9816 73.2187C58.2731 71.7532 57.2103 70.7386 55.7934 70.1749C54.4945 69.4985 53.0184 69.1603 51.3653 69.1603H33.6531V89.1137ZM33.6531 44.4723H49.2399C51.2472 44.4723 52.9004 44.1341 54.1993 43.4577C55.4982 42.6686 56.4428 41.5413 57.0332 40.0758C57.7417 38.4976 58.0959 36.6375 58.0959 34.4956C58.0959 30.7755 57.2103 28.2391 55.4391 26.8863C53.786 25.4208 51.7196 24.688 49.2399 24.688H33.6531V44.4723Z" fill="#191919"/>
<path d="M602.966 116C597.958 116 593.673 115.333 590.111 114C586.661 112.556 583.99 110.278 582.098 107.167C580.317 104.056 579.427 99.8333 579.427 94.5C579.427 92.8333 579.315 90.8333 579.093 88.5C578.87 86.1667 578.258 83.9444 577.256 81.8333C576.366 79.6111 574.919 77.7778 572.916 76.3333C570.912 74.7778 568.13 74 564.568 74H558.224V114.333H524V0H580.261C587.607 0 594.007 1.33333 599.46 4C604.914 6.66667 609.143 10.3333 612.148 15C615.153 19.6667 616.656 25.0556 616.656 31.1667C616.656 38.6111 614.82 44.8333 611.147 49.8333C607.474 54.8333 602.465 58 596.121 59.3333V60.1667C600.462 61.3889 603.968 63.3889 606.639 66.1667C609.31 68.9445 611.258 72.0556 612.482 75.5C613.818 78.8333 614.486 82.1667 614.486 85.5C614.486 92.2778 615.098 97.1667 616.322 100.167C617.658 103.167 619.884 105.111 623 106V112.833C619.995 114.056 616.712 114.889 613.15 115.333C609.589 115.778 606.194 116 602.966 116ZM558.224 48.5H570.912C575.364 48.5 578.425 47.3889 580.094 45.1667C581.764 42.8333 582.599 40.1111 582.599 37C582.599 34.2222 581.764 31.7222 580.094 29.5C578.425 27.2778 575.476 26.1667 571.246 26.1667H558.224V48.5Z" fill="#191919"/>
<path d="M432 116V0H515L511.646 26.7172H466.541V43.6268H509.802V69.4985H466.541V88.2682H511.646L515 116H432Z" fill="#191919"/>
<path d="M359.104 116V27.9009H330V0H423V27.9009H393.896V116H359.104Z" fill="#191919"/>
<path d="M259.104 116V27.9009H230V0H323V27.9009H293.896V116H259.104Z" fill="#191919"/>
<path d="M105 13.1L219 2V33.635L155.685 39.74V40.48L219 47.88V70.82L155.685 78.22V78.96L219 85.065L219 113L105 101.9V64.345L159.673 57.87V57.13L105 50.655L105 13.1Z" fill="#191919"/>
</svg>
