<svg width="227" height="21" viewBox="0 0 227 21" fill="none" xmlns="http://www.w3.org/2000/svg">
<path d="M214.103 21V13.898L208.189 0H214.767L217.452 7.07143H217.603L220.017 0H226.293L220.409 13.898V21H214.103Z" fill="#191919"/>
<path d="M180.946 21C179.683 21 178.531 20.8017 177.488 20.4051C176.466 20.0085 175.584 19.4433 174.842 18.7096C174.1 17.9759 173.529 17.1034 173.128 16.0921C172.727 15.0609 172.526 13.9207 172.526 12.6714V8.35836C172.526 7.10907 172.727 5.97875 173.128 4.96742C173.529 3.93626 174.1 3.05382 174.842 2.32011C175.584 1.56657 176.466 0.991502 177.488 0.5949C178.531 0.1983 179.683 0 180.946 0H182.029C183.292 0 184.435 0.1983 185.457 0.5949C186.499 0.991502 187.392 1.56657 188.133 2.32011C188.875 3.05382 189.446 3.93626 189.847 4.96742C190.248 5.97875 190.449 7.10907 190.449 8.35836V12.6714C190.449 13.9207 190.248 15.0609 189.847 16.0921C189.446 17.1034 188.875 17.9759 188.133 18.7096C187.392 19.4433 186.499 20.0085 185.457 20.4051C184.435 20.8017 183.292 21 182.029 21H180.946ZM181.488 16.33C181.868 16.33 182.209 16.2805 182.51 16.1813C182.811 16.0623 183.071 15.8938 183.292 15.6756C183.512 15.4575 183.683 15.1997 183.803 14.9023C183.923 14.585 183.983 14.2181 183.983 13.8017V7.16856C183.983 6.75213 183.923 6.39519 183.803 6.09773C183.683 5.78045 183.512 5.51275 183.292 5.29462C183.071 5.07649 182.811 4.91785 182.51 4.8187C182.209 4.69972 181.868 4.64023 181.488 4.64023C181.127 4.64023 180.786 4.69972 180.465 4.8187C180.164 4.91785 179.904 5.07649 179.683 5.29462C179.483 5.51275 179.322 5.78045 179.202 6.09773C179.082 6.39519 179.022 6.75213 179.022 7.16856V13.8017C179.022 14.2181 179.082 14.585 179.202 14.9023C179.322 15.1997 179.483 15.4575 179.683 15.6756C179.904 15.8938 180.164 16.0623 180.465 16.1813C180.786 16.2805 181.127 16.33 181.488 16.33Z" fill="#191919"/>
<path d="M154.061 21V0H161.396L162.419 11.2041H162.539L163.561 0H170.897V21H165.485V7.53061H165.365L164.042 21H160.314L158.991 7.53061H158.871V21H154.061Z" fill="#191919"/>
<path d="M137.405 21V0H152.431L151.824 4.83674H143.658V7.89796H151.49V12.5816H143.658V15.9796H151.824L152.431 21H137.405Z" fill="#191919"/>
<path d="M0 21V0H11.0945C12.2916 0 13.3177 0.214286 14.1728 0.642858C15.0492 1.07143 15.7119 1.67347 16.1608 2.44898C16.6311 3.20408 16.8663 4.10204 16.8663 5.14286C16.8663 6.16327 16.6846 7 16.3212 7.65306C15.9791 8.30612 15.5088 8.81633 14.9103 9.18367C14.3331 9.55102 13.7025 9.83674 13.0185 10.0408V10.1633C13.617 10.2857 14.1728 10.4694 14.6858 10.7143C15.2203 10.9592 15.6906 11.2959 16.0967 11.7245C16.5029 12.1327 16.8128 12.6429 17.0266 13.2551C17.2617 13.8469 17.3793 14.5612 17.3793 15.398C17.3793 16.5204 17.1335 17.5 16.6418 18.3367C16.1502 19.1735 15.4447 19.8265 14.5255 20.2959C13.6277 20.7653 12.5482 21 11.2869 21H0ZM6.09238 16.1327H9.2989C9.70506 16.1327 10.0257 16.051 10.2609 15.8878C10.496 15.7041 10.6563 15.4694 10.7418 15.1837C10.8487 14.898 10.9022 14.602 10.9022 14.2959C10.9022 13.8469 10.8273 13.5 10.6777 13.2551C10.5494 12.9898 10.357 12.8061 10.1005 12.7041C9.86538 12.5816 9.59817 12.5204 9.2989 12.5204H6.09238V16.1327ZM6.09238 8.05102H8.91411C9.27752 8.05102 9.5768 7.9898 9.81194 7.86735C10.0471 7.72449 10.2181 7.52041 10.325 7.2551C10.4532 6.96939 10.5174 6.63265 10.5174 6.2449C10.5174 5.57143 10.357 5.11224 10.0364 4.86735C9.73712 4.60204 9.36303 4.46939 8.91411 4.46939H6.09238V8.05102Z" fill="#191919"/>
<path d="M77.8447 21V0H92.8706L92.2635 4.83674H84.0979V7.89796H91.9296V12.5816H84.0979V15.9796H92.2635L92.8706 21H77.8447Z" fill="#191919"/>
<path d="M64.6478 21V5.05102H59.3789V0H76.2151V5.05102H70.9462V21H64.6478Z" fill="#191919"/>
<path d="M46.5453 21V5.05102H41.2764V0H58.1126V5.05102H52.8437V21H46.5453Z" fill="#191919"/>
<path d="M39.6471 20.4569L18.8281 19.5897V11.3672L26.5532 10.6606L31.1167 10.3394L26.5532 10.0825L18.8281 9.44009V1.41033L39.6471 0.543115V6.4209H30.7289L24.4355 6.51725L30.7289 7.22387L39.6471 8.31592V12.8447L30.7289 13.8404L24.2566 14.6112L30.7289 14.6434L39.6471 14.7397V20.4569Z" fill="#191919"/>
<path d="M113.871 0H135.414V20.8489H129.735V8.64928H127.513V16.7841H122.112V8.64928H119.55V21H113.871V0Z" fill="#191919"/>
<path d="M99.4916 14.1705V8.66476H103.1C103.461 8.66476 103.762 8.59456 104.002 8.45415C104.263 8.2937 104.453 8.08309 104.573 7.82235C104.714 7.5616 104.784 7.29083 104.784 7.01003C104.784 6.74928 104.714 6.5086 104.573 6.28797C104.433 6.06734 104.233 5.88682 103.972 5.74642C103.732 5.60602 103.431 5.53582 103.07 5.53582H99.4916V0H103.371C105.055 0 106.528 0.280802 107.791 0.842407C109.074 1.40401 110.066 2.2063 110.768 3.24928C111.47 4.29226 111.82 5.54584 111.82 7.01003C111.82 7.85244 111.61 8.70487 111.189 9.56733C110.768 10.4097 110.167 11.1819 109.385 11.884C108.623 12.5659 107.691 13.1175 106.588 13.5387C105.506 13.9599 104.293 14.1705 102.95 14.1705H99.4916ZM94.5 21V0H101.386V21H94.5ZM105.115 21C105.115 20.1576 105.005 19.2851 104.784 18.3825C104.584 17.4799 104.273 16.6175 103.852 15.7951C103.431 14.9728 102.9 14.2507 102.258 13.6289C101.617 13.0072 100.855 12.5659 99.9728 12.3052L106.558 10.8309C107.701 11.3925 108.633 12.0845 109.355 12.9069C110.096 13.7092 110.668 14.5817 111.069 15.5244C111.47 16.447 111.76 17.3797 111.941 18.3224C112.121 19.265 112.221 20.1576 112.241 21H105.115Z" fill="#191919"/>
<path d="M197.07 14.1705V8.66476H200.678C201.039 8.66476 201.34 8.59456 201.58 8.45415C201.841 8.2937 202.031 8.08309 202.152 7.82235C202.292 7.5616 202.362 7.29083 202.362 7.01003C202.362 6.74928 202.292 6.5086 202.152 6.28797C202.011 6.06734 201.811 5.88682 201.55 5.74642C201.31 5.60602 201.009 5.53582 200.648 5.53582H197.07V0H200.949C202.633 0 204.106 0.280802 205.369 0.842407C206.652 1.40401 207.644 2.2063 208.346 3.24928C209.048 4.29226 209.399 5.54584 209.399 7.01003C209.399 7.85244 209.188 8.70487 208.767 9.56733C208.346 10.4097 207.745 11.1819 206.963 11.884C206.201 12.5659 205.269 13.1175 204.166 13.5387C203.084 13.9599 201.871 14.1705 200.528 14.1705H197.07ZM192.078 21V0H198.964V21H192.078ZM202.693 21C202.693 20.1576 202.583 19.2851 202.362 18.3825C202.162 17.4799 201.851 16.6175 201.43 15.7951C201.009 14.9728 200.478 14.2507 199.836 13.6289C199.195 13.0072 198.433 12.5659 197.551 12.3052L204.136 10.8309C205.279 11.3925 206.211 12.0845 206.933 12.9069C207.675 13.7092 208.246 14.5817 208.647 15.5244C209.048 16.447 209.338 17.3797 209.519 18.3224C209.699 19.265 209.799 20.1576 209.82 21H202.693Z" fill="#191919"/>
</svg>
