<svg width="640" height="339" viewBox="0 0 640 339" fill="none" xmlns="http://www.w3.org/2000/svg">
<path d="M0 338.995V0H179.095C198.419 0 214.983 3.45914 228.786 10.3774C242.934 17.2957 253.631 27.0142 260.878 39.533C268.469 51.7224 272.265 66.2178 272.265 83.0193C272.265 99.4914 269.332 112.998 263.466 123.541C257.945 134.083 250.353 142.319 240.691 148.249C231.374 154.179 221.194 158.791 210.152 162.085V164.062C219.814 166.039 228.786 169.004 237.068 172.957C245.694 176.91 253.286 182.346 259.843 189.264C266.399 195.853 271.403 204.089 274.853 213.972C278.649 223.526 280.547 235.057 280.547 248.564C280.547 266.683 276.579 282.496 268.642 296.003C260.705 309.51 249.318 320.053 234.479 327.63C219.986 335.207 202.56 338.995 182.2 338.995H0ZM98.3468 260.424H150.108C156.665 260.424 161.841 259.106 165.637 256.47C169.433 253.505 172.021 249.717 173.401 245.105C175.126 240.492 175.989 235.715 175.989 230.774C175.989 223.526 174.781 217.926 172.366 213.972C170.295 209.69 167.19 206.725 163.049 205.077C159.253 203.101 154.939 202.112 150.108 202.112H98.3468V260.424ZM98.3468 129.965H143.897C149.763 129.965 154.594 128.976 158.39 127C162.186 124.694 164.947 121.399 166.672 117.116C168.742 112.504 169.778 107.069 169.778 100.809C169.778 89.9376 167.19 82.5251 162.013 78.5718C157.182 74.2891 151.143 72.1477 143.897 72.1477H98.3468V129.965Z" fill="black"/>
<path d="M306.85 38.2031L640 5.76465V98.2143L454.971 116.055V118.218L640 139.844V206.883L454.971 228.509V230.671L640 248.512V330.149L306.85 297.711L306.85 187.961L466.626 169.038V166.876L306.85 147.953V38.2031Z" fill="black"/>
</svg>
