<svg width="638" height="334" viewBox="0 0 638 334" fill="none" xmlns="http://www.w3.org/2000/svg">
<path d="M0 333.5V0H177.724C196.9 0 213.337 3.40307 227.035 10.2092C241.075 17.0153 251.69 26.5763 258.881 38.8921C266.415 50.8839 270.182 65.1443 270.182 81.6735C270.182 97.8785 267.271 111.167 261.45 121.538C255.971 131.909 248.437 140.012 238.849 145.846C229.603 151.679 219.501 156.217 208.543 159.458V161.402C218.132 163.347 227.035 166.264 235.253 170.153C243.814 174.042 251.348 179.39 257.854 186.196C264.36 192.678 269.326 200.781 272.75 210.504C276.517 219.903 278.4 231.246 278.4 244.534C278.4 262.36 274.462 277.917 266.586 291.205C258.71 304.493 247.41 314.864 232.685 322.319C218.303 329.773 201.01 333.5 180.806 333.5H0ZM97.5942 256.202H148.959C155.466 256.202 160.602 254.906 164.369 252.313C168.136 249.396 170.704 245.669 172.074 241.131C173.786 236.594 174.642 231.894 174.642 227.033C174.642 219.903 173.444 214.393 171.047 210.504C168.992 206.29 165.91 203.373 161.801 201.753C158.034 199.808 153.754 198.836 148.959 198.836H97.5942V256.202ZM97.5942 127.858H142.796C148.617 127.858 153.411 126.886 157.178 124.941C160.945 122.672 163.684 119.431 165.396 115.218C167.451 110.681 168.478 105.333 168.478 99.1749C168.478 88.4796 165.91 81.1873 160.774 77.2981C155.979 73.0848 149.987 70.9781 142.796 70.9781H97.5942V127.858Z" fill="black"/>
<path d="M304.5 40.6085L638 8.7085V99.6235L452.776 117.169V119.295L638 140.562V206.489L452.776 227.755V229.882L638 247.427V327.709L304.5 295.809L304.5 187.88L464.444 169.272V167.145L304.5 148.537V40.6085Z" fill="black"/>
</svg>
